<svg xmlns="http://www.w3.org/2000/svg" xmlns:xlink="http://www.w3.org/1999/xlink" width="406pt" height="190pt" viewBox="0 0 406 190"><g id="graph0" class="graph" transform="scale(1 1) rotate(0) translate(4 186)"><title>mygraph</title><polygon fill="#fff" stroke="none" points="-4 4 -4 -186 402 -186 402 4 -4 4"/><g id="node1" class="node"><title>//main:hello-world</title><polygon fill="none" stroke="#000" points="264.25 -182 145.75 -182 145.75 -146 264.25 -146 264.25 -182"/><text x="205" y="-160.3" font-family="Times,serif" font-size="14" text-anchor="middle">//main:hello-world</text></g><g id="node2" class="node"><title>//main:hello-time</title><polygon fill="none" stroke="#000" points="119.5 -110 8.5 -110 8.5 -74 119.5 -74 119.5 -110"/><text x="64" y="-88.3" font-family="Times,serif" font-size="14" text-anchor="middle">//main:hello-time</text></g><g id="edge1" class="edge"><title>//main:hello-world-&gt;//main:hello-time</title><path fill="none" stroke="#000" d="M170.508,-145.876C151.56,-136.469 127.868,-124.708 107.644,-114.667"/><polygon fill="#000" stroke="#000" points="109.138 -111.502 98.625 -110.19 106.026 -117.771 109.138 -111.502"/></g><g id="node3" class="node"><title>//main:hello-world.cc</title><polygon fill="none" stroke="#000" points="272 -110 138 -110 138 -74 272 -74 272 -110"/><text x="205" y="-88.3" font-family="Times,serif" font-size="14" text-anchor="middle">//main:hello-world.cc</text></g><g id="edge2" class="edge"><title>//main:hello-world-&gt;//main:hello-world.cc</title><path fill="none" stroke="#000" d="M205,-145.697C205,-137.983 205,-128.712 205,-120.112"/><polygon fill="#000" stroke="#000" points="208.5 -120.104 205 -110.104 201.5 -120.104 208.5 -120.104"/></g><g id="node4" class="node"><title>//lib:hello-greet</title><polygon fill="none" stroke="#000" points="391.25 -110 290.75 -110 290.75 -74 391.25 -74 391.25 -110"/><text x="341" y="-88.3" font-family="Times,serif" font-size="14" text-anchor="middle">//lib:hello-greet</text></g><g id="edge3" class="edge"><title>//main:hello-world-&gt;//lib:hello-greet</title><path fill="none" stroke="#000" d="M238.269,-145.876C256.463,-136.512 279.191,-124.814 298.64,-114.803"/><polygon fill="#000" stroke="#000" points="300.313 -117.878 307.603 -110.19 297.11 -111.654 300.313 -117.878"/></g><g id="node5" class="node"><title>//main:hello-time.cc\n//main:hello-time.h</title><polygon fill="none" stroke="#000" points="128 -38 0 -38 0 0 128 0 128 -38"/><text x="64" y="-22.8" font-family="Times,serif" font-size="14" text-anchor="middle">//main:hello-time.cc</text><text x="64" y="-7.8" font-family="Times,serif" font-size="14" text-anchor="middle">//main:hello-time.h</text></g><g id="edge4" class="edge"><title>//main:hello-time-&gt;//main:hello-time.cc\n//main:hello-time.h</title><path fill="none" stroke="#000" d="M64,-73.8129C64,-66.1101 64,-56.8234 64,-48.149"/><polygon fill="#000" stroke="#000" points="67.5 -48.02 64 -38.02 60.5 -48.02 67.5 -48.02"/></g><g id="node6" class="node"><title>//lib:hello-greet.cc\n//lib:hello-greet.h</title><polygon fill="none" stroke="#000" points="398.5 -38 283.5 -38 283.5 0 398.5 0 398.5 -38"/><text x="341" y="-22.8" font-family="Times,serif" font-size="14" text-anchor="middle">//lib:hello-greet.cc</text><text x="341" y="-7.8" font-family="Times,serif" font-size="14" text-anchor="middle">//lib:hello-greet.h</text></g><g id="edge5" class="edge"><title>//lib:hello-greet-&gt;//lib:hello-greet.cc\n//lib:hello-greet.h</title><path fill="none" stroke="#000" d="M341,-73.8129C341,-66.1101 341,-56.8234 341,-48.149"/><polygon fill="#000" stroke="#000" points="344.5 -48.02 341 -38.02 337.5 -48.02 344.5 -48.02"/></g></g></svg>