<svg xmlns="http://www.w3.org/2000/svg" width="600" height="371" aria-label="mobile-install performance" style="overflow:hidden"><defs id="defs"><clipPath id="_ABSTRACT_RENDERER_ID_0"><rect width="371" height="229" x="115" y="71"/></clipPath></defs><rect width="600" height="371" x="0" y="0" fill="#fff" stroke="none" stroke-width="0"/><g><text x="115" y="50.2" fill="#000" stroke="none" stroke-width="0" font-family="Arial" font-size="12" font-weight="bold" text-anchor="start">Build times</text></g><g><rect width="90" height="79" x="498" y="71" fill="#fff" fill-opacity="0" stroke="none" stroke-width="0"/><g><rect width="90" height="28" x="498" y="71" fill="#fff" fill-opacity="0" stroke="none" stroke-width="0"/><g><text x="527" y="81.2" fill="#222" stroke="none" stroke-width="0" font-family="Arial" font-size="12" text-anchor="start">adb install</text></g><rect width="24" height="12" x="498" y="71" fill="#36c" stroke="none" stroke-width="0"/></g><g><rect width="90" height="44" x="498" y="106" fill="#fff" fill-opacity="0" stroke="none" stroke-width="0"/><g><text x="527" y="116.2" fill="#222" stroke="none" stroke-width="0" font-family="Arial" font-size="12" text-anchor="start">mobile-install</text></g><rect width="24" height="12" x="498" y="106" fill="#dc3912" stroke="none" stroke-width="0"/></g></g><g><rect width="371" height="229" x="115" y="71" fill="#fff" fill-opacity="0" stroke="none" stroke-width="0"/><g clip-path="url(https://docs.google.com/spreadsheets/d/1taQnyaw10DUfxh2HuMSZ7InXylis3wZa_KPdTVMdbtQ/edit#_ABSTRACT_RENDERER_ID_0)"><g><rect width="371" height="1" x="115" y="299" fill="#ccc" stroke="none" stroke-width="0"/><rect width="371" height="1" x="115" y="242" fill="#ccc" stroke="none" stroke-width="0"/><rect width="371" height="1" x="115" y="185" fill="#ccc" stroke="none" stroke-width="0"/><rect width="371" height="1" x="115" y="128" fill="#ccc" stroke="none" stroke-width="0"/><rect width="371" height="1" x="115" y="71" fill="#ccc" stroke="none" stroke-width="0"/></g><g><rect width="37" height="212" x="139" y="87" fill="#36c" stroke="none" stroke-width="0"/><rect width="37" height="45" x="263" y="254" fill="#36c" stroke="none" stroke-width="0"/><rect width="37" height="105" x="386" y="194" fill="#36c" stroke="none" stroke-width="0"/><rect width="37" height="27" x="177" y="272" fill="#dc3912" stroke="none" stroke-width="0"/><rect width="37" height="10" x="301" y="289" fill="#dc3912" stroke="none" stroke-width="0"/><rect width="37" height="17" x="424" y="282" fill="#dc3912" stroke="none" stroke-width="0"/></g><g><rect width="371" height="1" x="115" y="299" fill="#333" stroke="none" stroke-width="0"/></g></g><g><g><text x="177.167" y="317.2" fill="#222" stroke="none" stroke-width="0" font-family="Arial" font-size="12" text-anchor="middle">Google Maps</text></g><g><text x="300.5" y="317.2" fill="#222" stroke="none" stroke-width="0" font-family="Arial" font-size="12" text-anchor="middle">Google+</text></g><g><text x="423.833" y="317.2" fill="#222" stroke="none" stroke-width="0" font-family="Arial" font-size="12" text-anchor="middle">YouTube</text></g><g><text x="103" y="303.7" fill="#444" stroke="none" stroke-width="0" font-family="Arial" font-size="12" text-anchor="end">0</text></g><g><text x="103" y="246.7" fill="#444" stroke="none" stroke-width="0" font-family="Arial" font-size="12" text-anchor="end">75</text></g><g><text x="103" y="189.7" fill="#444" stroke="none" stroke-width="0" font-family="Arial" font-size="12" text-anchor="end">150</text></g><g><text x="103" y="132.7" fill="#444" stroke="none" stroke-width="0" font-family="Arial" font-size="12" text-anchor="end">225</text></g><g><text x="103" y="75.7" fill="#444" stroke="none" stroke-width="0" font-family="Arial" font-size="12" text-anchor="end">300</text></g></g></g><g><g><text x="45.7" y="185.5" fill="#222" stroke="none" stroke-width="0" font-family="Arial" font-size="12" font-style="italic" text-anchor="middle" transform="rotate(-90 45.7 185.5)">Seconds</text></g></g></svg>