<svg xmlns="http://www.w3.org/2000/svg" xmlns:xlink="http://www.w3.org/1999/xlink" width="473pt" height="188pt" viewBox="0 0 473 188"><g id="graph0" class="graph" transform="scale(1 1) rotate(0) translate(4 184)"><title>mygraph</title><polygon fill="#fff" stroke="none" points="-4 4 -4 -184 469 -184 469 4 -4 4"/><g id="node1" class="node"><title>//:ProjectRunner</title><polygon fill="none" stroke="#000" points="277.5 -180 172.5 -180 172.5 -144 277.5 -144 277.5 -180"/><text x="225" y="-158.3" font-family="Times,serif" font-size="14" text-anchor="middle">//:ProjectRunner</text></g><g id="node2" class="node"><title>//:greeter</title><polygon fill="none" stroke="#000" points="160.25 -108 95.75 -108 95.75 -72 160.25 -72 160.25 -108"/><text x="128" y="-86.3" font-family="Times,serif" font-size="14" text-anchor="middle">//:greeter</text></g><g id="edge1" class="edge"><title>//:ProjectRunner-&gt;//:greeter</title><path fill="none" stroke="#000" d="M201.022,-143.697C188.689,-134.796 173.484,-123.823 160.147,-114.199"/><polygon fill="#000" stroke="#000" points="161.859 -111.118 151.702 -108.104 157.763 -116.794 161.859 -111.118"/></g><g id="node3" class="node"><title>//:src/main/java/com/example/ProjectRunner.java</title><polygon fill="none" stroke="#000" points="465.25 -108 178.75 -108 178.75 -72 465.25 -72 465.25 -108"/><text x="322" y="-86.3" font-family="Times,serif" font-size="14" text-anchor="middle">//:src/main/java/com/example/ProjectRunner.java</text></g><g id="edge2" class="edge"><title>//:ProjectRunner-&gt;//:src/main/java/com/example/ProjectRunner.java</title><path fill="none" stroke="#000" d="M248.978,-143.697C261.311,-134.796 276.516,-123.823 289.853,-114.199"/><polygon fill="#000" stroke="#000" points="292.237 -116.794 298.298 -108.104 288.141 -111.118 292.237 -116.794"/></g><g id="node4" class="node"><title>//:src/main/java/com/example/Greeting.java</title><polygon fill="none" stroke="#000" points="256.25 -36 -.25 -36 -.25 0 256.25 0 256.25 -36"/><text x="128" y="-14.3" font-family="Times,serif" font-size="14" text-anchor="middle">//:src/main/java/com/example/Greeting.java</text></g><g id="edge3" class="edge"><title>//:greeter-&gt;//:src/main/java/com/example/Greeting.java</title><path fill="none" stroke="#000" d="M128,-71.6966C128,-63.9827 128,-54.7125 128,-46.1124"/><polygon fill="#000" stroke="#000" points="131.5 -46.104 128 -36.104 124.5 -46.104 131.5 -46.104"/></g></g></svg>