<svg xmlns="http://www.w3.org/2000/svg" xmlns:xlink="http://www.w3.org/1999/xlink" width="479pt" height="188pt" viewBox="0 0 479 188"><g id="graph0" class="graph" transform="scale(1 1) rotate(0) translate(4 184)"><title>mygraph</title><polygon fill="#fff" stroke="none" points="-4 4 -4 -184 475 -184 475 4 -4 4"/><g id="node1" class="node"><title>//src/main/java/com/example/cmdline:runner</title><polygon fill="none" stroke="#000" points="375.25 -180 112.75 -180 112.75 -144 375.25 -144 375.25 -180"/><text x="244" y="-158.3" font-family="Times,serif" font-size="14" text-anchor="middle">//src/main/java/com/example/cmdline:runner</text></g><g id="node2" class="node"><title>//src/main/java/com/example/cmdline:Runner.java</title><polygon fill="none" stroke="#000" points="292.25 -108 -.25 -108 -.25 -72 292.25 -72 292.25 -108"/><text x="146" y="-86.3" font-family="Times,serif" font-size="14" text-anchor="middle">//src/main/java/com/example/cmdline:Runner.java</text></g><g id="edge1" class="edge"><title>//src/main/java/com/example/cmdline:runner-&gt;//src/main/java/com/example/cmdline:Runner.java</title><path fill="none" stroke="#000" d="M220.027,-143.876C207.45,-134.893 191.868,-123.763 178.248,-114.034"/><polygon fill="#000" stroke="#000" points="180.237 -111.154 170.066 -108.19 176.169 -116.85 180.237 -111.154"/></g><g id="node3" class="node"><title>//:greeter</title><polygon fill="none" stroke="#000" points="375.25 -108 310.75 -108 310.75 -72 375.25 -72 375.25 -108"/><text x="343" y="-86.3" font-family="Times,serif" font-size="14" text-anchor="middle">//:greeter</text></g><g id="edge2" class="edge"><title>//src/main/java/com/example/cmdline:runner-&gt;//:greeter</title><path fill="none" stroke="#000" d="M268.218,-143.876C280.923,-134.893 296.664,-123.763 310.423,-114.034"/><polygon fill="#000" stroke="#000" points="312.544 -116.821 318.689 -108.19 308.503 -111.105 312.544 -116.821"/></g><g id="node4" class="node"><title>//:src/main/java/com/example/Greeting.java</title><polygon fill="none" stroke="#000" points="471.25 -36 214.75 -36 214.75 0 471.25 0 471.25 -36"/><text x="343" y="-14.3" font-family="Times,serif" font-size="14" text-anchor="middle">//:src/main/java/com/example/Greeting.java</text></g><g id="edge3" class="edge"><title>//:greeter-&gt;//:src/main/java/com/example/Greeting.java</title><path fill="none" stroke="#000" d="M343,-71.6966C343,-63.9827 343,-54.7125 343,-46.1124"/><polygon fill="#000" stroke="#000" points="346.5 -46.104 343 -36.104 339.5 -46.104 346.5 -46.104"/></g></g></svg>