<svg xmlns="http://www.w3.org/2000/svg" xmlns:xlink="http://www.w3.org/1999/xlink" width="188pt" height="56pt" viewBox="0 0 188 55.76"><g id="graph0" class="graph" transform="scale(1 1) rotate(0) translate(4 51.757)"><title>G</title><polygon fill="#fff" stroke="transparent" points="-4 4 -4 -51.757 184 -51.757 184 4 -4 4"/><g id="node1" class="node"><title>a</title><ellipse cx="18" cy="-29.757" fill="none" stroke="#000" rx="18" ry="18"/><text x="18" y="-26.057" font-family="Times,serif" font-size="14" text-anchor="middle">a</text></g><g id="node2" class="node"><title>b</title><ellipse cx="90" cy="-29.757" fill="none" stroke="#000" rx="18" ry="18"/><text x="90" y="-26.057" font-family="Times,serif" font-size="14" text-anchor="middle">b</text></g><g id="edge1" class="edge"><title>a-&gt;b</title><path fill="none" stroke="#000" d="M36.1686,-29.757C43.869,-29.757 53.0257,-29.757 61.5834,-29.757"/><polygon fill="#000" stroke="#000" points="61.587 -33.257 71.587 -29.757 61.587 -26.257 61.587 -33.257"/></g><g id="node3" class="node"><title>c</title><ellipse cx="162" cy="-29.757" fill="none" stroke="#000" rx="18" ry="18"/><text x="162" y="-26.057" font-family="Times,serif" font-size="14" text-anchor="middle">c</text></g><g id="edge3" class="edge"><title>a-&gt;c</title><path fill="none" stroke="#000" d="M33.3269,-19.6799C43.7533,-13.4476 58.1264,-6.0321 72,-2.757 87.572,.919 92.428,.919 108,-2.757 118.2968,-5.1878 128.8688,-9.8992 137.8982,-14.7149"/><polygon fill="#000" stroke="#000" points="136.246 -17.802 146.673 -19.68 139.693 -11.709 136.246 -17.802"/></g><g id="edge2" class="edge"><title>b-&gt;c</title><path fill="none" stroke="#000" d="M108.1686,-29.757C115.869,-29.757 125.0257,-29.757 133.5834,-29.757"/><polygon fill="#000" stroke="#000" points="133.587 -33.257 143.587 -29.757 133.587 -26.257 133.587 -33.257"/></g></g></svg>