<svg xmlns="http://www.w3.org/2000/svg" xmlns:xlink="http://www.w3.org/1999/xlink" width="157pt" height="328" viewBox="0 0 156.5 246"><g id="graph0" class="graph" transform="scale(1 1) rotate(0) translate(4 242)"><title>G1</title><polygon fill="#fff" stroke="transparent" points="-4 4 -4 -242 152.5 -242 152.5 4 -4 4"/><g id="node1" class="node"><title>r1</title><polygon fill="none" stroke="#000" points="88.5 -173 34.5 -173 34.5 -137 88.5 -137 88.5 -173"/><text x="61.5" y="-152.5" fill="#006000" font-family="Courier,monospace" font-size="10" font-weight="bold" text-anchor="middle">rule</text></g><g id="node3" class="node"><title>s1</title><ellipse cx="14.5" cy="-223.5" fill="none" stroke="#000" rx="14.5" ry="14.5"/><text x="14.5" y="-221" fill="#006000" font-family="Courier,monospace" font-size="10" font-weight="bold" text-anchor="middle">in</text></g><g id="edge1" class="edge"><title>r1-&gt;s1</title><path fill="none" stroke="#000" d="M48.9049,-173.3567C42.6407,-182.4865 35.0482,-193.5522 28.5909,-202.9632"/><polygon fill="#000" stroke="#000" points="25.6 -201.136 22.828 -211.362 31.372 -205.096 25.6 -201.136"/></g><g id="node4" class="node"><title>s2</title><ellipse cx="61.5" cy="-223.5" fill="none" stroke="#000" rx="14.5" ry="14.5"/><text x="61.5" y="-221" fill="#006000" font-family="Courier,monospace" font-size="10" font-weight="bold" text-anchor="middle">in</text></g><g id="edge2" class="edge"><title>r1-&gt;s2</title><path fill="none" stroke="#000" d="M61.5,-173.3567C61.5,-181.1589 61.5,-190.3749 61.5,-198.7638"/><polygon fill="#000" stroke="#000" points="58 -198.779 61.5 -208.779 65 -198.779 58 -198.779"/></g><g id="node5" class="node"><title>s3</title><ellipse cx="108.5" cy="-223.5" fill="none" stroke="#000" rx="14.5" ry="14.5"/><text x="108.5" y="-221" fill="#006000" font-family="Courier,monospace" font-size="10" font-weight="bold" text-anchor="middle">in</text></g><g id="edge3" class="edge"><title>r1-&gt;s3</title><path fill="none" stroke="#000" d="M74.0951,-173.3567C80.3593,-182.4865 87.9518,-193.5522 94.4091,-202.9632"/><polygon fill="#000" stroke="#000" points="91.628 -205.096 100.172 -211.362 97.4 -201.136 91.628 -205.096"/></g><g id="node2" class="node"><title>r2</title><polygon fill="none" stroke="#000" points="148.5 -101 94.5 -101 94.5 -65 148.5 -65 148.5 -101"/><text x="121.5" y="-80.5" fill="#006000" font-family="Courier,monospace" font-size="10" font-weight="bold" text-anchor="middle">rule</text></g><g id="edge5" class="edge"><title>r2-&gt;r1</title><path fill="none" stroke="#000" d="M106.3595,-101.1686C99.3783,-109.546 90.9609,-119.6469 83.3124,-128.8251"/><polygon fill="#000" stroke="#000" points="80.558 -126.664 76.844 -136.587 85.935 -131.145 80.558 -126.664"/></g><g id="node6" class="node"><title>s4</title><ellipse cx="121.5" cy="-155" fill="none" stroke="#000" rx="14.5" ry="14.5"/><text x="121.5" y="-152.5" fill="#006000" font-family="Courier,monospace" font-size="10" font-weight="bold" text-anchor="middle">in</text></g><g id="edge4" class="edge"><title>r2-&gt;s4</title><path fill="none" stroke="#000" d="M121.5,-101.1686C121.5,-110.0069 121.5,-120.7634 121.5,-130.331"/><polygon fill="#000" stroke="#000" points="118 -130.462 121.5 -140.462 125 -130.462 118 -130.462"/></g><g id="node7" class="node"><title>o1</title><ellipse cx="61.5" cy="-83" fill="none" stroke="#000" rx="14.5" ry="14.5"/><text x="61.5" y="-80.5" fill="#006000" font-family="Courier,monospace" font-size="10" font-weight="bold" text-anchor="middle">out</text></g><g id="edge6" class="edge"><title>o1-&gt;r1</title><path fill="none" stroke="#000" d="M61.5,-97.5703C61.5,-105.8989 61.5,-116.6335 61.5,-126.564"/><polygon fill="#000" stroke="#000" points="58 -126.872 61.5 -136.872 65 -126.872 58 -126.872"/></g><g id="node8" class="node"><title>o2</title><ellipse cx="121.5" cy="-14.5" fill="none" stroke="#000" rx="14.5" ry="14.5"/><text x="121.5" y="-12" fill="#006000" font-family="Courier,monospace" font-size="10" font-weight="bold" text-anchor="middle">out</text></g><g id="edge7" class="edge"><title>o2-&gt;r2</title><path fill="none" stroke="#000" d="M121.5,-29.0271C121.5,-36.5355 121.5,-45.9623 121.5,-54.8278"/><polygon fill="#000" stroke="#000" points="118 -54.829 121.5 -64.829 125 -54.829 118 -54.829"/></g></g></svg>