<svg xmlns="http://www.w3.org/2000/svg" xmlns:xlink="http://www.w3.org/1999/xlink" width="710pt" height="332pt" viewBox="0 0 709.5 332"><g id="graph0" class="graph" transform="scale(1 1) rotate(0) translate(4 328)"><title>mygraph</title><polygon fill="#fff" stroke="transparent" points="-4 4 -4 -328 705.5 -328 705.5 4 -4 4"/><g id="node1" class="node"><title>//net/proto_compiler:protocol-compiler</title><polygon fill="none" stroke="#000" points="418 -324 188 -324 188 -288 418 -288 418 -324"/><text x="303" y="-302.3" font-family="Times,serif" font-size="14" text-anchor="middle">//net/proto_compiler:protocol-compiler</text></g><g id="node2" class="node"><title>//net/proto_compiler:util</title><polygon fill="none" stroke="#000" points="150 -180 0 -180 0 -144 150 -144 150 -180"/><text x="75" y="-158.3" font-family="Times,serif" font-size="14" text-anchor="middle">//net/proto_compiler:util</text></g><g id="edge1" class="edge"><title>//net/proto_compiler:protocol-compiler-&gt;//net/proto_compiler:util</title><path fill="none" stroke="#000" d="M239.5865,-287.9961C214.5565,-279.2804 186.2795,-267.3314 163,-252 136.491,-234.5418 111.7343,-207.9214 95.2752,-188.1561"/><polygon fill="#000" stroke="#000" points="97.781 -185.69 88.749 -180.152 92.355 -190.114 97.781 -185.69"/></g><g id="node3" class="node"><title>//net/proto_compiler:protocol-compiler-lib</title><polygon fill="none" stroke="#000" points="701.5 -252 452.5 -252 452.5 -216 701.5 -216 701.5 -252"/><text x="577" y="-230.3" font-family="Times,serif" font-size="14" text-anchor="middle">//net/proto_compiler:protocol-compiler-lib</text></g><g id="edge2" class="edge"><title>//net/proto_compiler:protocol-compiler-&gt;//net/proto_compiler:protocol-compiler-lib</title><path fill="none" stroke="#000" d="M371.7881,-287.9243C410.3041,-277.8033 458.4771,-265.1447 498.4684,-254.6361"/><polygon fill="#000" stroke="#000" points="499.401 -258.01 508.184 -252.083 497.622 -251.24 499.401 -258.01"/></g><g id="node4" class="node"><title>//net/proto2/bridge/public:compiler_upgrader</title><polygon fill="none" stroke="#000" points="434.5 -252 171.5 -252 171.5 -216 434.5 -216 434.5 -252"/><text x="303" y="-230.3" font-family="Times,serif" font-size="14" text-anchor="middle">//net/proto2/bridge/public:compiler_upgrader</text></g><g id="edge3" class="edge"><title>//net/proto_compiler:protocol-compiler-&gt;//net/proto2/bridge/public:compiler_upgrader</title><path fill="none" stroke="#000" d="M303,-287.8314C303,-280.131 303,-270.9743 303,-262.4166"/><polygon fill="#000" stroke="#000" points="306.5 -262.413 303 -252.413 299.5 -262.413 306.5 -262.413"/></g><g id="node6" class="node"><title>//net/proto_compiler:parser</title><polygon fill="none" stroke="#000" points="548.5 -108 383.5 -108 383.5 -72 548.5 -72 548.5 -108"/><text x="466" y="-86.3" font-family="Times,serif" font-size="14" text-anchor="middle">//net/proto_compiler:parser</text></g><g id="edge9" class="edge"><title>//net/proto_compiler:util-&gt;//net/proto_compiler:parser</title><path fill="none" stroke="#000" d="M150.0776,-145.7681C153.0893,-145.1626 156.0723,-144.571 159,-144 230.8248,-129.9926 312.4276,-115.7165 373.4389,-105.3638"/><polygon fill="#000" stroke="#000" points="374.156 -108.792 383.432 -103.672 372.988 -101.891 374.156 -108.792"/></g><g id="node5" class="node"><title>//net/proto_compiler:proto-min-lib</title><polygon fill="none" stroke="#000" points="700 -180 494 -180 494 -144 700 -144 700 -180"/><text x="597" y="-158.3" font-family="Times,serif" font-size="14" text-anchor="middle">//net/proto_compiler:proto-min-lib</text></g><g id="edge11" class="edge"><title>//net/proto_compiler:protocol-compiler-lib-&gt;//net/proto_compiler:proto-min-lib</title><path fill="none" stroke="#000" d="M582.0468,-215.8314C584.2094,-208.0463 586.7853,-198.7729 589.1848,-190.1347"/><polygon fill="#000" stroke="#000" points="592.581 -190.985 591.885 -180.413 585.836 -189.112 592.581 -190.985"/></g><g id="edge10" class="edge"><title>//net/proto_compiler:protocol-compiler-lib-&gt;//net/proto_compiler:parser</title><path fill="none" stroke="#000" d="M529.6391,-215.7791C513.2165,-207.2457 496.1464,-195.4806 485,-180 472.1477,-162.1502 467.6252,-137.4553 466.1895,-118.448"/><polygon fill="#000" stroke="#000" points="469.676 -118.089 465.669 -108.281 462.685 -118.448 469.676 -118.089"/></g><g id="node8" class="node"><title>//net/proto2/bridge/internal:compiler_upgrader</title><polygon fill="none" stroke="#000" points="438 -180 168 -180 168 -144 438 -144 438 -180"/><text x="303" y="-158.3" font-family="Times,serif" font-size="14" text-anchor="middle">//net/proto2/bridge/internal:compiler_upgrader</text></g><g id="edge12" class="edge"><title>//net/proto2/bridge/public:compiler_upgrader-&gt;//net/proto2/bridge/internal:compiler_upgrader</title><path fill="none" stroke="#000" d="M297.0476,-215.8314C296.2972,-208.131 296.0763,-198.9743 296.3849,-190.4166"/><polygon fill="#000" stroke="#000" points="299.879 -190.616 297.024 -180.413 292.894 -190.17 299.879 -190.616"/></g><g id="edge4" class="edge"><title>//net/proto_compiler:proto-min-lib-&gt;//net/proto_compiler:parser</title><path fill="none" stroke="#000" d="M563.9432,-143.8314C547.0323,-134.5368 526.2615,-123.1208 508.2059,-113.1971"/><polygon fill="#000" stroke="#000" points="509.496 -109.912 499.046 -108.163 506.124 -116.047 509.496 -109.912"/></g><g id="node7" class="node"><title>//util/regexp:regexp</title><polygon fill="none" stroke="#000" points="582.5 -36 459.5 -36 459.5 0 582.5 0 582.5 -36"/><text x="521" y="-14.3" font-family="Times,serif" font-size="14" text-anchor="middle">//util/regexp:regexp</text></g><g id="edge5" class="edge"><title>//net/proto_compiler:proto-min-lib-&gt;//util/regexp:regexp</title><path fill="none" stroke="#000" d="M590.352,-143.9306C583.2667,-125.4072 571.2598,-95.9968 558,-72 552.9416,-62.8456 546.7384,-53.2943 540.8671,-44.8146"/><polygon fill="#000" stroke="#000" points="543.565 -42.568 534.931 -36.427 537.851 -46.612 543.565 -42.568"/></g><g id="edge8" class="edge"><title>//net/proto_compiler:parser-&gt;//util/regexp:regexp</title><path fill="none" stroke="#000" d="M479.8788,-71.8314C486.2136,-63.5386 493.8384,-53.557 500.7926,-44.4533"/><polygon fill="#000" stroke="#000" points="503.645 -46.485 506.934 -36.413 498.082 -42.235 503.645 -46.485"/></g><g id="edge7" class="edge"><title>//net/proto2/bridge/internal:compiler_upgrader-&gt;//net/proto2/bridge/public:compiler_upgrader</title><path fill="none" stroke="#000" d="M308.976,-180.4133C309.7071,-188.0593 309.9203,-197.1084 309.6155,-205.5726"/><polygon fill="#000" stroke="#000" points="306.105 -205.626 308.952 -215.831 313.09 -206.078 306.105 -205.626"/></g><g id="edge6" class="edge"><title>//net/proto2/bridge/internal:compiler_upgrader-&gt;//net/proto_compiler:parser</title><path fill="none" stroke="#000" d="M344.1318,-143.8314C365.9321,-134.2018 392.8878,-122.295 415.9004,-112.1299"/><polygon fill="#000" stroke="#000" points="417.431 -115.28 425.164 -108.038 414.602 -108.877 417.431 -115.28"/></g></g></svg>