<svg xmlns="http://www.w3.org/2000/svg" xmlns:xlink="http://www.w3.org/1999/xlink" width="139pt" height="260pt" viewBox="0 0 138.5 260"><g id="graph0" class="graph" transform="scale(1 1) rotate(0) translate(4 256)"><title>mygraph</title><polygon fill="#fff" stroke="transparent" points="-4 4 -4 -256 134.5 -256 134.5 4 -4 4"/><g id="node1" class="node"><title>//a:a</title><polygon fill="none" stroke="#000" points="55 -108 1 -108 1 -72 55 -72 55 -108"/><text x="28" y="-86.3" font-family="Times,serif" font-size="14" text-anchor="middle">//a:a</text></g><g id="node2" class="node"><title>//a:a.cc</title><polygon fill="none" stroke="#000" points="56 -36 0 -36 0 0 56 0 56 -36"/><text x="28" y="-14.3" font-family="Times,serif" font-size="14" text-anchor="middle">//a:a.cc</text></g><g id="edge1" class="edge"><title>//a:a-&gt;//a:a.cc</title><path fill="none" stroke="#000" d="M28,-71.8314C28,-64.131 28,-54.9743 28,-46.4166"/><polygon fill="#000" stroke="#000" points="31.5 -46.413 28 -36.413 24.5 -46.413 31.5 -46.413"/></g><g id="node3" class="node"><title>//b:b</title><polygon fill="none" stroke="#000" points="110 -180 56 -180 56 -144 110 -144 110 -180"/><text x="83" y="-158.3" font-family="Times,serif" font-size="14" text-anchor="middle">//b:b</text></g><g id="edge2" class="edge"><title>//b:b-&gt;//a:a</title><path fill="none" stroke="#000" d="M69.1212,-143.8314C62.7864,-135.5386 55.1616,-125.557 48.2074,-116.4533"/><polygon fill="#000" stroke="#000" points="50.917 -114.235 42.066 -108.413 45.355 -118.485 50.917 -114.235"/></g><g id="node4" class="node"><title>//b:b.cc</title><polygon fill="none" stroke="#000" points="130.5 -108 73.5 -108 73.5 -72 130.5 -72 130.5 -108"/><text x="102" y="-86.3" font-family="Times,serif" font-size="14" text-anchor="middle">//b:b.cc</text></g><g id="edge3" class="edge"><title>//b:b-&gt;//b:b.cc</title><path fill="none" stroke="#000" d="M87.7945,-143.8314C89.8489,-136.0463 92.296,-126.7729 94.5756,-118.1347"/><polygon fill="#000" stroke="#000" points="97.974 -118.975 97.141 -108.413 91.205 -117.189 97.974 -118.975"/></g><g id="node5" class="node"><title>//c:c</title><polygon fill="none" stroke="#000" points="82 -252 28 -252 28 -216 82 -216 82 -252"/><text x="55" y="-230.3" font-family="Times,serif" font-size="14" text-anchor="middle">//c:c</text></g><g id="edge5" class="edge"><title>//c:c-&gt;//a:a</title><path fill="none" stroke="#000" d="M51.5804,-215.7623C46.9549,-191.0928 38.6612,-146.8598 33.245,-117.9731"/><polygon fill="#000" stroke="#000" points="36.675 -117.273 31.392 -108.09 29.795 -118.563 36.675 -117.273"/></g><g id="edge4" class="edge"><title>//c:c-&gt;//b:b</title><path fill="none" stroke="#000" d="M62.0656,-215.8314C65.126,-207.9617 68.7779,-198.5712 72.1682,-189.8533"/><polygon fill="#000" stroke="#000" points="75.477 -191.002 75.839 -180.413 68.953 -188.465 75.477 -191.002"/></g></g></svg>