<svg xmlns="http://www.w3.org/2000/svg" xmlns:xlink="http://www.w3.org/1999/xlink" width="152pt" height="384" viewBox="0 0 152.33 288"><g id="graph0" class="graph" transform="scale(.8456 .8456) rotate(0) translate(4 336.5928)"><title>somepath2</title><polygon fill="#fff" stroke="transparent" points="-4 4 -4 -336.593 176.148 -336.593 176.148 4 -4 4"/><g id="node1" class="node"><title>n1</title><ellipse cx="40" cy="-312.445" fill="none" stroke="#000" rx="18" ry="18"/></g><g id="node2" class="node"><title>n2</title><ellipse cx="41" cy="-236.148" fill="none" stroke="#000" rx="18" ry="18"/></g><g id="edge1" class="edge"><title>n1-&gt;n2</title><path fill="none" stroke="#000" d="M40.237,-294.3634C40.3532,-285.4965 40.4959,-274.6075 40.6264,-264.6554"/><polygon fill="#000" stroke="#000" points="44.13 -264.409 40.761 -254.364 37.13 -264.317 44.13 -264.409"/></g><g id="node3" class="node"><title>n3</title><ellipse cx="18" cy="-162" fill="none" stroke="#000" rx="18" ry="18"/></g><g id="edge2" class="edge"><title>n2-&gt;n3</title><path fill="none" stroke="#000" d="M35.6655,-218.9508C32.9275,-210.1237 29.5274,-199.1624 26.4435,-189.2204"/><polygon fill="#000" stroke="#000" points="29.691 -187.875 23.385 -179.361 23.005 -189.949 29.691 -187.875"/></g><g id="node10" class="node"><title>n10</title><ellipse cx="23" cy="-90" fill="none" stroke="#000" rx="18" ry="18"/></g><g id="edge9" class="edge"><title>n2-&gt;n10</title><path fill="none" stroke="#000" d="M44.2389,-218.297C47.0603,-199.5961 49.9868,-169.4573 45,-144 43.1054,-134.328 39.4698,-124.2023 35.6916,-115.3671"/><polygon fill="#000" stroke="#000" points="38.774 -113.689 31.45 -106.033 32.401 -116.585 38.774 -113.689"/></g><g id="edge10" class="edge"><title>n3-&gt;n10</title><path fill="none" stroke="#000" d="M19.2617,-143.8314C19.7965,-136.131 20.4323,-126.9743 21.0266,-118.4166"/><polygon fill="#000" stroke="#000" points="24.52 -118.632 21.721 -108.413 17.537 -118.147 24.52 -118.632"/></g><g id="node4" class="node"><title>n4</title><ellipse cx="74" cy="-18" fill="pink" stroke="#000" rx="18" ry="18"/><text x="74" y="-14.3" font-family="Times,serif" font-size="14" text-anchor="middle">E</text></g><g id="node5" class="node"><title>n5</title><ellipse cx="96" cy="-236.148" fill="none" stroke="#000" rx="18" ry="18"/></g><g id="node6" class="node"><title>n6</title><ellipse cx="114" cy="-162" fill="pink" stroke="#000" rx="18" ry="18"/></g><g id="edge5" class="edge"><title>n5-&gt;n6</title><path fill="none" stroke="#000" d="M100.2657,-218.5761C102.3577,-209.9588 104.9266,-199.3765 107.2745,-189.7046"/><polygon fill="#000" stroke="#000" points="110.745 -190.246 109.703 -179.703 103.942 -188.595 110.745 -190.246"/></g><g id="edge6" class="edge"><title>n6-&gt;n4</title><path fill="none" stroke="#000" d="M106.6597,-145.2221C102.2549,-134.6847 96.7901,-120.7254 93,-108 86.8937,-87.4979 81.9754,-63.8091 78.6739,-45.8822"/><polygon fill="#000" stroke="#000" points="82.078 -45.033 76.876 -35.803 75.187 -46.263 82.078 -45.033"/></g><g id="node9" class="node"><title>n9</title><ellipse cx="120" cy="-90" fill="none" stroke="#000" rx="18" ry="18"/></g><g id="edge8" class="edge"><title>n6-&gt;n9</title><path fill="none" stroke="#000" d="M115.5141,-143.8314C116.1558,-136.131 116.9188,-126.9743 117.6319,-118.4166"/><polygon fill="#000" stroke="#000" points="121.123 -118.669 118.466 -108.413 114.147 -118.088 121.123 -118.669"/></g><g id="node7" class="node"><title>n7</title><ellipse cx="96" cy="-312.445" fill="none" stroke="#000" rx="20.297" ry="20.297"/><text x="96" y="-308.745" font-family="Times,serif" font-size="14" text-anchor="middle">S1</text></g><g id="edge4" class="edge"><title>n7-&gt;n2</title><path fill="none" stroke="#000" d="M84.0658,-295.8894C76.3372,-285.1683 66.1629,-271.0544 57.6441,-259.2371"/><polygon fill="#000" stroke="#000" points="60.479 -257.185 51.792 -251.119 54.801 -261.278 60.479 -257.185"/></g><g id="edge3" class="edge"><title>n7-&gt;n5</title><path fill="none" stroke="#000" d="M96,-291.9986C96,-283.5595 96,-273.6353 96,-264.5119"/><polygon fill="#000" stroke="#000" points="99.5 -264.307 96 -254.306 92.5 -264.307 99.5 -264.307"/></g><g id="node8" class="node"><title>n8</title><ellipse cx="152" cy="-236.148" fill="pink" stroke="#000" rx="20.297" ry="20.297"/><text x="152" y="-232.448" font-family="Times,serif" font-size="14" text-anchor="middle">S2</text></g><g id="edge7" class="edge"><title>n8-&gt;n6</title><path fill="none" stroke="#000" d="M142.8013,-218.199C138.0739,-208.9747 132.2319,-197.5753 127.0475,-187.4592"/><polygon fill="#000" stroke="#000" points="130.012 -185.57 122.336 -178.266 123.782 -188.762 130.012 -185.57"/></g><g id="edge11" class="edge"><title>n10-&gt;n4</title><path fill="none" stroke="#000" d="M33.5672,-75.0816C40.4738,-65.3311 49.6369,-52.395 57.4935,-41.3032"/><polygon fill="#000" stroke="#000" points="60.522 -43.083 63.446 -32.899 54.81 -39.036 60.522 -43.083"/></g><g id="node11" class="node"><title>n11</title><ellipse cx="20" cy="-18" fill="none" stroke="#000" rx="18" ry="18"/></g><g id="edge12" class="edge"><title>n10-&gt;n11</title><path fill="none" stroke="#000" d="M22.243,-71.8314C21.9221,-64.131 21.5406,-54.9743 21.184,-46.4166"/><polygon fill="#000" stroke="#000" points="24.681 -46.259 20.767 -36.413 17.687 -46.55 24.681 -46.259"/></g></g></svg>