<svg xmlns="http://www.w3.org/2000/svg" xmlns:xlink="http://www.w3.org/1999/xlink" width="664" height="188pt" viewBox="0 0 498.19 188"><g id="graph0" class="graph" transform="scale(1 1) rotate(0) translate(4 184)"><title>G1</title><polygon fill="#fff" stroke="transparent" points="-4 4 -4 -184 494.19 -184 494.19 4 -4 4"/><g id="node1" class="node"><title>Target</title><ellipse cx="319.146" cy="-162" fill="none" stroke="#000" rx="33.595" ry="18"/><text x="319.146" y="-158.3" font-family="Times,serif" font-size="14" text-anchor="middle">Target</text></g><g id="node2" class="node"><title>Rule</title><ellipse cx="196.146" cy="-90" fill="none" stroke="#000" rx="27.097" ry="18"/><text x="196.146" y="-86.3" font-family="Times,serif" font-size="14" text-anchor="middle">Rule</text></g><g id="edge1" class="edge"><title>Target-&gt;Rule</title><path fill="none" stroke="#000" d="M296.2988,-148.6261C276.3598,-136.9545 247.3049,-119.9468 225.6191,-107.2526"/><polygon fill="#000" stroke="#000" points="227.223 -104.136 216.824 -102.105 223.686 -110.177 227.223 -104.136"/></g><g id="node6" class="node"><title>File</title><ellipse cx="319.146" cy="-90" fill="none" stroke="#000" rx="27" ry="18"/><text x="319.146" y="-86.3" font-family="Times,serif" font-size="14" text-anchor="middle">File</text></g><g id="edge5" class="edge"><title>Target-&gt;File</title><path fill="none" stroke="#000" d="M319.1459,-143.8314C319.1459,-136.131 319.1459,-126.9743 319.1459,-118.4166"/><polygon fill="#000" stroke="#000" points="322.646 -118.413 319.146 -108.413 315.646 -118.413 322.646 -118.413"/></g><g id="node9" class="node"><title>Package group</title><ellipse cx="427.146" cy="-90" fill="none" stroke="#000" rx="63.089" ry="18"/><text x="427.146" y="-86.3" font-family="Times,serif" font-size="14" text-anchor="middle">Package group</text></g><g id="edge8" class="edge"><title>Target-&gt;Package group</title><path fill="none" stroke="#000" d="M340.4832,-147.7751C355.5596,-137.7242 376.077,-124.0459 393.3637,-112.5215"/><polygon fill="#000" stroke="#000" points="395.684 -115.181 402.063 -106.722 391.801 -109.357 395.684 -115.181"/></g><g id="node3" class="node"><title>cc_library</title><ellipse cx="46.146" cy="-18" fill="none" stroke="#000" rx="46.292" ry="18"/><text x="46.146" y="-14.3" font-family="Times,serif" font-size="14" text-anchor="middle">cc_library</text></g><g id="edge2" class="edge"><title>Rule-&gt;cc_library</title><path fill="none" stroke="#000" d="M174.0129,-79.3762C150.5101,-68.0948 112.9146,-50.049 84.5596,-36.4386"/><polygon fill="#000" stroke="#000" points="85.861 -33.181 75.332 -32.009 82.832 -39.492 85.861 -33.181"/></g><g id="node4" class="node"><title>java_test</title><ellipse cx="152.146" cy="-18" fill="none" stroke="#000" rx="42.494" ry="18"/><text x="152.146" y="-14.3" font-family="Times,serif" font-size="14" text-anchor="middle">java_test</text></g><g id="edge3" class="edge"><title>Rule-&gt;java_test</title><path fill="none" stroke="#000" d="M185.9408,-73.3008C180.654,-64.6496 174.077,-53.8873 168.134,-44.1623"/><polygon fill="#000" stroke="#000" points="171.111 -42.321 162.91 -35.613 165.138 -45.971 171.111 -42.321"/></g><g id="node5" class="node"><title>...</title><ellipse cx="239.146" cy="-18" fill="none" stroke="#000" rx="27" ry="18"/><text x="239.146" y="-14.3" font-family="Times,serif" font-size="14" text-anchor="middle">...</text></g><g id="edge4" class="edge"><title>Rule-&gt;...</title><path fill="none" stroke="#000" d="M206.3363,-72.937C211.5308,-64.2393 217.9565,-53.4799 223.7407,-43.7948"/><polygon fill="#000" stroke="#000" points="226.906 -45.321 229.029 -34.941 220.896 -41.731 226.906 -45.321"/></g><g id="node7" class="node"><title>Source</title><ellipse cx="319.146" cy="-18" fill="none" stroke="#000" rx="35.194" ry="18"/><text x="319.146" y="-14.3" font-family="Times,serif" font-size="14" text-anchor="middle">Source</text></g><g id="edge6" class="edge"><title>File-&gt;Source</title><path fill="none" stroke="#000" d="M319.1459,-71.8314C319.1459,-64.131 319.1459,-54.9743 319.1459,-46.4166"/><polygon fill="#000" stroke="#000" points="322.646 -46.413 319.146 -36.413 315.646 -46.413 322.646 -46.413"/></g><g id="node8" class="node"><title>Generated</title><ellipse cx="419.146" cy="-18" fill="none" stroke="#000" rx="46.593" ry="18"/><text x="419.146" y="-14.3" font-family="Times,serif" font-size="14" text-anchor="middle">Generated</text></g><g id="edge7" class="edge"><title>File-&gt;Generated</title><path fill="none" stroke="#000" d="M337.9551,-76.4574C352.2161,-66.1894 372.1136,-51.8633 388.6413,-39.9633"/><polygon fill="#000" stroke="#000" points="390.859 -42.679 396.929 -33.996 386.769 -36.999 390.859 -42.679"/></g></g></svg>